#N canvas 859 70 645 659 12;
#X obj 12 25 bng 19 250 50 0 empty empty Trigger 0 -8 0 12 -204786
-1 -1;
#X obj 12 49 s \$0-trg;
#X obj 82 49 s \$0-s-frq;
#N canvas 481 566 462 97 startup 0;
#X obj 12 12 loadbang;
#X msg 12 36 440;
#X obj 12 60 s \$0-r-frq;
#X obj 102 12 loadbang;
#X obj 102 60 s \$0-r-dec;
#X obj 182 12 loadbang;
#X msg 182 36 0;
#X msg 102 36 500;
#X obj 262 12 loadbang;
#X obj 262 60 s \$0-r-pgn;
#X obj 342 12 loadbang;
#X obj 342 60 s \$0-r-sym;
#X msg 342 36 15;
#X msg 262 36 12;
#X obj 182 60 s \$0-r-tlv;
#X connect 0 0 1 0;
#X connect 1 0 2 0;
#X connect 3 0 7 0;
#X connect 5 0 6 0;
#X connect 6 0 14 0;
#X connect 7 0 4 0;
#X connect 8 0 13 0;
#X connect 10 0 12 0;
#X connect 12 0 11 0;
#X connect 13 0 9 0;
#X restore 12 614 pd startup;
#X obj 82 25 nbx 4 19 0 1e+37 0 0 empty \$0-r-frq Frequency(Hz) 0 -8
0 12 -204786 -1 -1 440 256;
#X obj 12 466 *~ 0.5;
#X obj 12 495 dac~ 1 2;
#X obj 182 25 nbx 4 19 0 1e+37 0 0 empty \$0-r-dec Decay(Q) 0 -8 0
12 -204786 -1 -1 500 256;
#X obj 182 49 s \$0-s-dec;
#N canvas 584 233 317 286 hammer 0;
#X msg 12 155 0.5 \, 0 \$1;
#X obj 12 131 f;
#X obj 30 84 /;
#X obj 12 179 vline~;
#X obj 12 203 -~ 0.25;
#X obj 12 227 cos~;
#X floatatom 30 108 5 0 0 1 ms - -;
#X obj 12 12 r \$0-trg;
#X msg 30 60 1000 \$1;
#X obj 12 251 outlet~;
#X text 90 70 <- Hz to ms;
#X text 62 179 <- ramp generator;
#X text 72 203 <- offset;
#X text 52 227 <- cosine waveshaper;
#X obj 30 36 r \$0-s-frq;
#X connect 0 0 3 0;
#X connect 1 0 0 0;
#X connect 2 0 6 0;
#X connect 3 0 4 0;
#X connect 4 0 5 0;
#X connect 5 0 9 0;
#X connect 6 0 1 1;
#X connect 7 0 1 0;
#X connect 8 0 2 0;
#X connect 14 0 8 0;
#X restore 12 230 pd hammer;
#N canvas 0 23 428 408 tine 0;
#X obj 93 254 r \$0-trg;
#X obj 12 279 b.resonator~;
#X obj 39 206 * 7;
#X obj 12 133 b.highpass~;
#X obj 36 80 loadbang;
#X msg 81 104 0.404061;
#X msg 36 104 1500;
#X obj 156 114 r \$0-trg;
#X obj 66 230 r \$0-s-dec;
#X obj 243 264 r \$0-trg;
#X obj 162 289 b.resonator~;
#X obj 216 240 r \$0-s-dec;
#X obj 189 176 * 20;
#X obj 12 308 +~;
#X obj 313 241 + 100;
#X obj 313 265 dbtorms;
#X msg 313 289 \$1 20;
#X obj 313 313 line~;
#X obj 12 332 *~;
#X obj 39 182 r \$0-s-frq;
#X obj 189 152 r \$0-s-frq;
#X text 36 60 //Load Cutoff and Resonance;
#X text 229 176 <- Tine Ratio;
#X obj 12 31 inlet~;
#X text 12 11 //Excitation Input;
#X obj 12 356 outlet~;
#X obj 313 217 r \$0-s-tvl;
#X text 12 376 //Output;
#X connect 0 0 1 3;
#X connect 1 0 13 0;
#X connect 2 0 1 1;
#X connect 3 0 1 0;
#X connect 3 0 10 0;
#X connect 4 0 5 0;
#X connect 4 0 6 0;
#X connect 5 0 3 2;
#X connect 6 0 3 1;
#X connect 7 0 3 3;
#X connect 8 0 1 2;
#X connect 9 0 10 3;
#X connect 10 0 13 1;
#X connect 11 0 10 2;
#X connect 12 0 10 1;
#X connect 13 0 18 0;
#X connect 14 0 15 0;
#X connect 15 0 16 0;
#X connect 16 0 17 0;
#X connect 17 0 18 1;
#X connect 18 0 25 0;
#X connect 19 0 2 0;
#X connect 20 0 12 0;
#X connect 23 0 3 0;
#X connect 26 0 14 0;
#X restore 70 283 pd tine;
#X obj 272 25 nbx 4 19 -100 0 0 0 empty \$0-r-tlv Tine-Lvl(dB) 0 -8
0 12 -204786 -1 -1 0 256;
#X obj 272 49 s \$0-s-tvl;
#X obj 52 331 +~;
#N canvas 0 23 372 239 tone-bar 0;
#X obj 93 103 r \$0-trg;
#X obj 12 152 *~ 0.75;
#X obj 12 128 b.resonator~;
#X obj 66 79 r \$0-s-dec;
#X obj 39 55 r \$0-s-frq;
#X obj 12 176 outlet~;
#X obj 12 31 inlet~;
#X text 163 103 <- Clear Filter's State;
#X text 146 79 <- Decay(Q);
#X text 119 55 <- Frequency(Hz);
#X text 12 11 //Excitation Input;
#X text 12 196 //Output;
#X connect 0 0 2 3;
#X connect 1 0 5 0;
#X connect 2 0 1 0;
#X connect 3 0 2 2;
#X connect 4 0 2 1;
#X connect 6 0 2 0;
#X restore 52 307 pd tone-bar;
#X obj 182 95 nbx 4 19 0 24 0 0 empty \$0-r-pgn Pickup-Gain(dB) 0 -8
0 12 -204786 -1 -1 12 256;
#X obj 292 95 nbx 4 19 0 24 0 0 empty \$0-r-sym Symmetry(dB) 0 -8 0
12 -204786 -1 -1 15 256;
#X obj 12 413 +~;
#X obj 12 355 +~;
#N canvas 484 237 407 467 pickup 0;
#X obj 37 127 b.lowpass~;
#X obj 59 55 loadbang;
#X msg 59 79 1000;
#X msg 99 79 0.404061;
#X obj 104 103 r \$0-trg;
#X obj 37 151 *~;
#X obj 173 60 + 100;
#X obj 173 84 dbtorms;
#X msg 173 108 \$1 20;
#X obj 173 132 line~;
#X obj 37 175 hv.tanh;
#X obj 12 223 sig~ 2;
#X obj 12 247 pow~;
#X obj 12 271 -~ 1;
#X obj 12 295 *~;
#X obj 236 108 + 100;
#X obj 236 132 dbtorms;
#X msg 236 156 \$1 20;
#X obj 236 180 line~;
#X obj 37 199 *~;
#X obj 193 252 sig~ 1;
#X obj 193 276 /~;
#X obj 211 204 sig~ 2;
#X obj 211 228 pow~;
#X obj 149 376 b.highpass~;
#X obj 198 328 loadbang;
#X msg 198 352 0.404061;
#X obj 173 304 r \$0-s-frq;
#X obj 47 338 /~ 3;
#X obj 12 357 -~;
#X obj 149 400 *~ 0.5;
#X obj 47 314 pow~ 3;
#X text 42 295 <- Normalization;
#X text 97 175 <- Soft clipper;
#X text 97 324 <- Buzz;
#X obj 268 357 r \$0-trg;
#X text 239 376 <- Rectify signal;
#X text 199 400 <- Pickup Level;
#X text 52 247 <- Waveshaping;
#X text 52 271 <- Scale signal;
#X obj 149 424 outlet~;
#X obj 37 31 inlet~;
#X obj 173 36 r \$0-s-pgn;
#X obj 236 83 r \$0-s-sym;
#X text 149 444 Output;
#X text 37 11 Input;
#X connect 0 0 5 0;
#X connect 1 0 2 0;
#X connect 1 0 3 0;
#X connect 2 0 0 1;
#X connect 3 0 0 2;
#X connect 4 0 0 3;
#X connect 5 0 10 0;
#X connect 6 0 7 0;
#X connect 7 0 8 0;
#X connect 8 0 9 0;
#X connect 9 0 5 1;
#X connect 10 0 19 0;
#X connect 11 0 12 0;
#X connect 12 0 13 0;
#X connect 13 0 14 0;
#X connect 14 0 29 0;
#X connect 14 0 31 0;
#X connect 15 0 16 0;
#X connect 16 0 17 0;
#X connect 17 0 18 0;
#X connect 18 0 19 1;
#X connect 18 0 23 1;
#X connect 19 0 12 1;
#X connect 20 0 21 0;
#X connect 21 0 14 1;
#X connect 22 0 23 0;
#X connect 23 0 21 1;
#X connect 24 0 30 0;
#X connect 25 0 26 0;
#X connect 26 0 24 2;
#X connect 27 0 24 1;
#X connect 28 0 29 1;
#X connect 29 0 24 0;
#X connect 30 0 40 0;
#X connect 31 0 28 0;
#X connect 35 0 24 3;
#X connect 41 0 0 0;
#X connect 42 0 6 0;
#X connect 43 0 15 0;
#X restore 30 384 pd pickup;
#X obj 240 214 notein;
#X obj 240 238 poly 1 1;
#X obj 240 262 pack f f f;
#X obj 240 286 route 1;
#X obj 240 310 unpack f f;
#X obj 357 329 sel 0;
#X obj 389 353 t b f;
#X obj 389 430 t b b;
#X obj 389 479 del 2;
#X obj 429 513 s \$0-trg;
#X obj 421 454 s \$0-rst;
#X obj 421 401 s \$0-vel;
#X obj 240 358 mtof;
#X obj 182 119 s \$0-s-pgn;
#X obj 292 119 s \$0-s-sym;
#X obj 137 370 r \$0-trg;
#X obj 107 346 r \$0-rst;
#X msg 107 370 0 1;
#X msg 137 394 1 0;
#X obj 107 418 line~;
#X obj 12 437 *~;
#X obj 12 254 *~;
#X obj 89 91 r \$0-vel;
#X obj 89 115 / 127;
#X msg 89 139 1 \$1;
#X obj 89 163 -;
#X obj 89 187 * -24;
#X obj 89 211 + 100;
#X obj 89 235 dbtorms;
#X obj 421 377 pipe 2;
#X text 499 513 <- Trigger;
#X text 491 454 <- Reset Amplitude;
#X text 491 401 < Velocity;
#X text 240 402 //Note Frequency;
#X obj 240 382 s \$0-s-frq;
#X msg 389 523 500;
#X obj 357 547 s \$0-s-dec;
#X obj 240 334 pipe 2;
#X text 357 567 //Release & Decay;
#X msg 357 523 10;
#X text 107 326 //Reset Amplitude;
#X text 139 187 <- Velocity Range in dB;
#X text 439 353 <- Note on;
#X connect 0 0 1 0;
#X connect 4 0 2 0;
#X connect 5 0 6 0;
#X connect 5 0 6 1;
#X connect 7 0 8 0;
#X connect 9 0 41 0;
#X connect 10 0 13 1;
#X connect 11 0 12 0;
#X connect 13 0 18 1;
#X connect 14 0 13 0;
#X connect 15 0 33 0;
#X connect 16 0 34 0;
#X connect 17 0 40 0;
#X connect 18 0 17 0;
#X connect 18 0 19 0;
#X connect 19 0 17 1;
#X connect 20 0 21 0;
#X connect 20 1 21 1;
#X connect 21 0 22 0;
#X connect 21 1 22 1;
#X connect 21 2 22 2;
#X connect 22 0 23 0;
#X connect 23 0 24 0;
#X connect 24 0 57 0;
#X connect 24 1 25 0;
#X connect 25 0 59 0;
#X connect 25 1 26 0;
#X connect 26 0 27 0;
#X connect 26 1 49 0;
#X connect 27 0 28 0;
#X connect 27 1 30 0;
#X connect 28 0 29 0;
#X connect 28 0 55 0;
#X connect 32 0 54 0;
#X connect 35 0 38 0;
#X connect 36 0 37 0;
#X connect 37 0 39 0;
#X connect 38 0 39 0;
#X connect 39 0 40 1;
#X connect 40 0 5 0;
#X connect 41 0 18 0;
#X connect 41 0 14 0;
#X connect 41 0 10 0;
#X connect 42 0 43 0;
#X connect 43 0 44 0;
#X connect 44 0 45 0;
#X connect 45 0 46 0;
#X connect 46 0 47 0;
#X connect 47 0 48 0;
#X connect 48 0 41 1;
#X connect 49 0 31 0;
#X connect 55 0 56 0;
#X connect 57 0 32 0;
#X connect 59 0 56 0;
