#N canvas 866 97 1037 686 10;
#X declare -path ./abs;
#X obj 41 58 declare -path ./abs;
#X obj 58 338 notein;
#X obj 58 380 pack f f f;
#X obj 300 370 tgl 15 0 empty empty empty 17 7 0 10 -262144 -1 -1 0
1;
#X obj 300 390 metro 50;
#X obj 300 411 tabwrite~ \$0-scope;
#N canvas 0 22 450 278 (subpatch) 0;
#X array \$0-scope 441 float 0;
#X coords 0 1 440 -1 200 140 1;
#X restore 453 106 graph;
#X obj 58 443 clip~ -1 1;
#X obj 58 464 hip~ 3;
#X obj 58 485 *~ 0.9;
#X obj 58 506 dac~ 1 2;
#X obj 58 145 hsl 128 16 0 127 0 1 \$0-s-decay-time \$0-r-decay-time
DECAY TIME -2 -6 0 12 -1 -262144 -1 12200 1;
#X obj 58 175 hsl 128 16 0 127 0 1 \$0-s-release-time \$0-r-release-time
RELEASE TIME -2 -6 0 12 -1 -262144 -1 0 1;
#X obj 334 458 r \$0-s-decay-time;
#X obj 334 479 / 127;
#X msg 334 542 2 \$1;
#X obj 334 563 pow;
#X obj 334 584 s \$0-decay-time;
#X obj 334 605 v \$0-decay-time;
#X obj 454 479 / 127;
#X msg 454 542 2 \$1;
#X obj 454 563 pow;
#X obj 454 458 r \$0-s-release-time;
#X obj 454 584 s \$0-release-time;
#X obj 454 605 v \$0-release-time;
#X obj 58 401 clone -s 1 voice 8 \$0;
#X obj 334 521 + 4;
#X obj 454 500 * 7;
#X obj 454 521 + 3;
#X obj 264 542 cputime;
#X obj 264 458 loadbang;
#X obj 264 500 metro 1000;
#X obj 264 521 t b b;
#X obj 264 584 * 0.1;
#X obj 264 563 int;
#X obj 264 605 s \$0-cpu;
#X msg 264 479 1;
#X obj 55 95 nbx 3 16 -1e+37 1e+37 0 0 empty \$0-cpu CPU(%) 0 -6 0
12 -1 -262144 -1 11 256;
#X obj 202 366 > 0;
#X obj 202 387 sel 1;
#X obj 58 215 hsl 128 16 0 127 0 1 \$0-s-tine-decay \$0-r-tine-decay
TINE DECAY -2 -6 0 12 -1 -262144 -1 7600 1;
#X obj 594 479 / 127;
#X msg 594 542 2 \$1;
#X obj 594 563 pow;
#X obj 594 458 r \$0-s-tine-decay;
#X obj 594 584 s \$0-tine-decay;
#X obj 594 605 v \$0-tine-decay;
#X obj 594 521 + 6;
#X msg 477 340 open ./test.wav \, start;
#X obj 477 361 writesf~;
#X msg 477 320 stop;
#X msg 680 256 60;
#X obj 680 298 mtof;
#X obj 680 277 - 24;
#X obj 680 319 phasor~;
#X obj 680 340 -~ 0.25;
#X obj 680 361 cos~;
#X obj 755 297 *~ 20;
#X obj 755 318 -~ 0.25;
#X obj 755 339 cos~;
#X obj 755 360 /~ 6;
#X obj 679 381 *~;
#X obj 594 500 * 7;
#X obj 334 500 * 8;
#X obj 58 422 /~ 1;
#X obj 58 359 poly 1 1;
#X connect 1 0 65 0;
#X connect 1 1 65 1;
#X connect 2 0 25 0;
#X connect 3 0 4 0;
#X connect 4 0 5 0;
#X connect 7 0 8 0;
#X connect 8 0 9 0;
#X connect 9 0 10 0;
#X connect 9 0 10 1;
#X connect 9 0 49 0;
#X connect 13 0 14 0;
#X connect 14 0 63 0;
#X connect 15 0 16 0;
#X connect 16 0 17 0;
#X connect 19 0 27 0;
#X connect 20 0 21 0;
#X connect 21 0 23 0;
#X connect 22 0 19 0;
#X connect 25 0 64 0;
#X connect 26 0 15 0;
#X connect 27 0 28 0;
#X connect 28 0 20 0;
#X connect 29 0 34 0;
#X connect 30 0 36 0;
#X connect 31 0 32 0;
#X connect 32 0 29 0;
#X connect 32 1 29 1;
#X connect 33 0 35 0;
#X connect 34 0 33 0;
#X connect 36 0 31 0;
#X connect 38 0 39 0;
#X connect 39 0 5 0;
#X connect 41 0 62 0;
#X connect 42 0 43 0;
#X connect 43 0 45 0;
#X connect 44 0 41 0;
#X connect 47 0 42 0;
#X connect 48 0 49 0;
#X connect 50 0 49 0;
#X connect 51 0 53 0;
#X connect 52 0 54 0;
#X connect 53 0 52 0;
#X connect 54 0 55 0;
#X connect 54 0 57 0;
#X connect 55 0 56 0;
#X connect 56 0 61 0;
#X connect 57 0 58 0;
#X connect 58 0 59 0;
#X connect 59 0 60 0;
#X connect 59 0 61 1;
#X connect 62 0 47 0;
#X connect 63 0 26 0;
#X connect 64 0 7 0;
#X connect 64 0 5 0;
#X connect 65 0 2 0;
#X connect 65 1 2 1;
#X connect 65 2 2 2;
#X connect 65 2 38 0;
#X coords 0 686 1 685 566 325 0;
